PathFileType	4	(X/Y/Z)	Kaydara	
DataRate	CameraRate	NumFrames	NumMarkers	Units	OrigDataRate	OrigDataStartFrame	OrigNumFrames	
120.00	120.00	4	72	mm	120.00	1	268	
Frame#	Time	Hips			RightUpLeg			RightLeg			RightFoot			RightFoot_End			LeftUpLeg			LeftLeg			LeftFoot			LeftFoot_End			Spine			Spine1			Spine2			Spine3			Neck			Head			Head_End			RightShoulder			RightArm			RightForeArm			RightHand			RightHandThumb1			RightHandThumb2			RightHandThumb3			RightHandThumb3_End			RightInHandIndex			RightHandIndex1			RightHandIndex2			RightHandIndex3			RightHandIndex3_End			RightInHandMiddle			RightHandMiddle1			RightHandMiddle2			RightHandMiddle3			RightHandMiddle3_End			RightInHandRing			RightHandRing1			RightHandRing2			RightHandRing3			RightHandRing3_End			RightInHandPinky			RightHandPinky1			RightHandPinky2			RightHandPinky3			RightHandPinky3_End			LeftShoulder			LeftArm			LeftForeArm			LeftHand			LeftHandThumb1			LeftHandThumb2			LeftHandThumb3			LeftHandThumb3_End			LeftInHandIndex			LeftHandIndex1			LeftHandIndex2			LeftHandIndex3			LeftHandIndex3_End			LeftInHandMiddle			LeftHandMiddle1			LeftHandMiddle2			LeftHandMiddle3			LeftHandMiddle3_End			LeftInHandRing			LeftHandRing1			LeftHandRing2			LeftHandRing3			LeftHandRing3_End			LeftInHandPinky			LeftHandPinky1			LeftHandPinky2			LeftHandPinky3			LeftHandPinky3_End			
		X1	Y1	Z1	X2	Y2	Z2	X3	Y3	Z3	X4	Y4	Z4	X5	Y5	Z5	X6	Y6	Z6	X7	Y7	Z7	X8	Y8	Z8	X9	Y9	Z9	X10	Y10	Z10	X11	Y11	Z11	X12	Y12	Z12	X13	Y13	Z13	X14	Y14	Z14	X15	Y15	Z15	X16	Y16	Z16	X17	Y17	Z17	X18	Y18	Z18	X19	Y19	Z19	X20	Y20	Z20	X21	Y21	Z21	X22	Y22	Z22	X23	Y23	Z23	X24	Y24	Z24	X25	Y25	Z25	X26	Y26	Z26	X27	Y27	Z27	X28	Y28	Z28	X29	Y29	Z29	X30	Y30	Z30	X31	Y31	Z31	X32	Y32	Z32	X33	Y33	Z33	X34	Y34	Z34	X35	Y35	Z35	X36	Y36	Z36	X37	Y37	Z37	X38	Y38	Z38	X39	Y39	Z39	X40	Y40	Z40	X41	Y41	Z41	X42	Y42	Z42	X43	Y43	Z43	X44	Y44	Z44	X45	Y45	Z45	X46	Y46	Z46	X47	Y47	Z47	X48	Y48	Z48	X49	Y49	Z49	X50	Y50	Z50	X51	Y51	Z51	X52	Y52	Z52	X53	Y53	Z53	X54	Y54	Z54	X55	Y55	Z55	X56	Y56	Z56	X57	Y57	Z57	X58	Y58	Z58	X59	Y59	Z59	X60	Y60	Z60	X61	Y61	Z61	X62	Y62	Z62	X63	Y63	Z63	X64	Y64	Z64	X65	Y65	Z65	X66	Y66	Z66	X67	Y67	Z67	X68	Y68	Z68	X69	Y69	Z69	X70	Y70	Z70	X71	Y71	Z71	X72	Y72	Z72	

1	0.0	1446.805	859.65103	-201.189	1544.9039821887873	858.0487575036334	-233.34316728106597	1390.1019052710617	471.2254532161944	-300.0457408726793	1408.2091700343608	36.962533641405464	-342.52379124384584	1310.6548378530686	-35.67450649103067	-178.41047329388846	1359.1615105469868	834.0390992089434	-154.62792048858884	1239.5077366725411	434.7113062458254	-108.57817919668193	1188.8167169745348	55.61230576391531	57.42409532528975	1211.4212366853324	10.553730866342018	242.0833144047682	1395.1030601297487	978.5890008502537	-262.2832279690058	1338.1676511222358	1039.4546741768518	-312.5972995158727	1271.5141364756612	1094.7551332219366	-365.40171758439925	1199.3869106560921	1136.9268595259255	-416.1470301811766	1121.6059368473873	1182.5614861008908	-466.9628747881109	1079.1605067366456	1254.3110330357408	-421.6116740197446	1056.3907537312423	1338.7789335492057	-287.39655330168586	1168.8764292953929	1174.2410400450065	-472.0978146794989	1253.270503242867	1170.451570824145	-560.1214530868994	1302.6168679628377	933.5335121685198	-586.5302705802048	1385.5647773101325	792.1940930304104	-657.9348258589273	1384.5496193615304	787.7670479497274	-676.480275096405	1369.8082243365038	780.6808422684215	-691.8032077373615	1361.0932206319867	774.0784357146583	-700.6198835523943	1355.1546500986512	767.1477298427998	-706.3837358509414	1391.9616771623764	780.9758081744936	-671.5381104939848	1399.0632689347972	759.4096981142075	-685.4367905426782	1393.6125254604183	746.5772365274955	-695.0919051056349	1382.7047932984308	742.8252409089449	-701.5171010327123	1368.6046587510905	742.5702420306277	-707.1202924793209	1395.4387220410401	777.2943085843006	-666.0103833087011	1404.2490952523244	754.2674315298653	-676.5767914518779	1398.7240227996795	739.8515681852795	-686.3379643419182	1385.7670941085514	735.1267013837173	-693.7180827527394	1370.4376080183017	734.7513282709795	-699.6683196042148	1397.8311073789043	775.2063848629592	-661.7411845947674	1408.1462753077144	752.6481499805734	-667.4779579970386	1403.7475345296853	739.6977111603462	-675.1776957416591	1391.4709502243736	734.9354738254298	-681.867234930037	1377.1622772064713	734.4855214181192	-687.2585814034277	1399.4604167971556	773.7184179912927	-656.4903886961384	1410.3210381108831	751.9787519324784	-658.4886957711761	1407.4033080700167	741.1057087661574	-663.3686158498234	1398.7411899630006	737.3888899520155	-667.6260357359072	1386.234353138948	736.8503263444364	-672.0439501091892	1125.366233856289	1163.9464369268517	-425.9585366367465	1066.0305460724803	1096.3077320741775	-339.26090412939806	1173.8289142327092	946.4954730986377	-518.2232167957959	1368.6825620374402	845.6334526791429	-510.7000181612374	1353.6008427724662	847.077349174973	-517.18301430383	1353.2829891256024	843.1934434875287	-547.1313481502552	1354.5097730705081	838.6863231704191	-570.013506508159	1356.771334144204	833.3870387546891	-590.8226671518215	1356.1393982339782	840.6739379837171	-523.4816612398638	1347.8369930565814	826.7332872621574	-557.2848415625097	1348.837201848333	817.4317586188191	-589.1375366866869	1352.644025451641	814.4184025340235	-609.2386918626207	1357.9432987988473	813.7922846680809	-626.0776465423531	1360.689231817575	836.2759822233463	-528.2117516407968	1355.0503869022625	820.2997161296148	-563.7384888102564	1356.7775543646549	809.6153249867801	-599.0210024297154	1361.6754213048118	805.7232955567627	-623.5241761460702	1367.6221042611191	804.913512833089	-642.07149000721	1364.0545498575989	833.505956527738	-530.6263544253833	1361.7438545475643	816.728981266222	-564.3724499326136	1363.908612715276	806.8954117959669	-595.606026388974	1368.9831525105578	802.8645585509286	-619.4968304244497	1374.7404724630417	801.9720486015264	-637.0570801396984	1368.6543819879994	830.8638692200603	-532.9389070387219	1369.163418126182	813.7803303804328	-565.1104558505093	1371.9360579168715	805.1664286014147	-590.7251975648028	1376.1401403161674	801.8685694585703	-608.4434550989787	1381.5294906390932	800.8720680262219	-624.167140764764
2	0.008	1446.805	859.65103	-201.189	1544.8408029875477	858.0459609074658	-233.3073399869494	1390.1249735099116	471.18280316005513	-299.82011066457966	1408.390436288488	37.0132003323659	-342.33210306753	1310.9766031122576	-35.65707589651272	-178.2447985272524	1359.2138182219799	834.0362349701624	-154.66819389918356	1239.5272911203112	434.7368455210936	-108.5185496440836	1188.8268185453578	55.69290465916041	57.615409268213604	1211.556861297113	10.674559732293243	242.254584405336	1395.154451768762	978.6140056052503	-262.2659466097034	1338.2533628470744	1039.5224434418274	-312.5578604202378	1271.6419280056448	1094.8822688405571	-365.3395291999073	1199.5570448345545	1137.1233016781084	-416.0684146157313	1121.82093821733	1182.830693865614	-466.86697548779944	1079.3974235980031	1254.5898527866127	-421.5140485702749	1056.6080641832928	1339.052774768262	-287.3033633419945	1169.0663687151189	1174.5039149531601	-471.9758023389714	1253.45694266087	1170.850561498054	-559.8753429000308	1303.1232969460846	934.127857174513	-586.344173204556	1386.2848072363718	793.400418892828	-658.0270962249507	1385.314005388348	789.1051858523888	-676.5138229859239	1370.643239614074	782.1250928941095	-691.8657205210177	1361.9770549703794	775.5905453942929	-700.715323978787	1356.078883076533	768.7112459417823	-706.5175272851347	1392.7268552804403	782.307268372648	-671.6065041636022	1399.9048174284942	760.8975423911568	-685.5397260518406	1394.5179527904006	748.1585714082512	-695.2481682811958	1383.6501841460706	744.4490528560821	-701.709511773661	1369.5833116860024	744.2186668127509	-707.3446560222836	1396.2007725798787	778.6031742294836	-666.1136465538135	1405.0839503510733	755.7166046990056	-676.7326008751403	1399.6279336405537	741.3992485051102	-686.556494472041	1386.718926283412	736.7239524189928	-693.982396326494	1371.4256707533734	736.3746870650108	-699.9686445718493	1398.5889132275324	776.495436832231	-661.8680046494266	1408.965350238106	754.0461930070476	-667.6717032760115	1404.626028815423	741.1777964247492	-675.4306461980566	1392.395251598099	736.4613565644229	-682.1667581990193	1378.1204554215378	736.0349925050384	-687.5931143126052	1400.2118694254143	774.9789489211447	-656.6449765413495	1411.124478925799	753.3222100229164	-658.7211106701117	1408.2528542386854	742.508444256508	-663.6552402687096	1399.6234356976631	738.8219266801556	-667.9499186538326	1387.1461967231905	738.3024699924525	-672.4007389868034	1125.575698614505	1164.1696704157262	-425.8994749372611	1066.2054326138962	1096.491949237861	-339.3724744590653	1174.0376728914973	946.9667072187477	-518.2713980083549	1368.9278134125216	846.5999519821538	-510.710959767443	1353.9392140457226	848.1496437090294	-517.197175326726	1353.6904810428198	844.31440341462	-547.1207490305576	1354.9536071403727	839.8384413786832	-569.9870741924695	1357.2353669865213	834.5628121355331	-590.7842596872599	1356.4439623305634	841.7530010800746	-523.5046522459718	1348.1887675402213	827.944768385619	-557.3166203455629	1349.2222340044407	818.6990118207744	-589.1570695591395	1353.0558878992408	815.6922840534647	-609.2386804074264	1358.3815399144248	815.0527507912395	-626.0534297628776	1360.9600894682708	837.3413077116013	-528.237427407756	1355.3490606519333	821.4867813911834	-563.7741938605989	1357.1079126476711	810.8609466612495	-599.0436365386204	1362.0359552831637	806.9758214330478	-623.5233834456968	1368.010416266267	806.1508186452207	-642.0442741270282	1364.300309647029	834.5585675712144	-530.6539007738619	1361.992560599083	817.8807739623975	-564.4111804197146	1364.180186381885	808.0957083249267	-595.6336588826483	1369.2813154965945	804.0701711620122	-619.5020254218915	1375.0635569622968	803.1627095924856	-637.0375019979051	1368.870426312434	831.8950239381571	-532.9667978014251	1369.363611171852	814.8905264390455	-565.1494765554844	1372.1471552800024	806.311081116601	-590.7557404906319	1376.3670403197532	803.0149730480422	-608.4578168684635	1381.7764039206281	802.0040061166873	-624.1596783133515
3	0.017	1446.805	859.65103	-201.189	1544.7744682902571	858.0527966175733	-233.27508831270802	1390.2010654117603	471.1450478216935	-299.65976758376365	1408.6378012172652	37.08506333356412	-342.2535068861541	1311.3685045989146	-35.621584054963726	-178.1959473351153	1359.2722989408023	834.023881109518	-154.70676309112315	1239.584755798343	434.74281891886864	-108.46389433177802	1188.8250350270414	55.751299457016344	57.75881726429475	1211.6456480649042	10.767812470701298	242.38000921097867	1395.1928329343896	978.637773360724	-262.2402529950385	1338.322451543022	1039.5823079289935	-312.51288847252323	1271.7503205308824	1094.9906875192394	-365.27752340789374	1199.7070788158876	1137.289405927643	-415.99733916896525	1122.014344701389	1183.0562097082307	-466.78662127461484	1079.6092201936074	1254.8227170193313	-421.4335662850575	1056.8004153798747	1339.280903712602	-287.2276910432215	1169.2414458766248	1174.733650043231	-471.8656522473534	1253.6385584608763	1171.2336720764213	-559.6477909682795	1303.6609310365204	934.7038414392724	-586.1626658749502	1387.0561260014406	794.5872815855491	-658.1580505344278	1386.1336132515028	790.4232328355215	-676.5851296404193	1371.5394346971498	783.5442750423255	-691.9639293784853	1362.9267064020542	777.0740820351709	-700.8453174909164	1357.0731891023936	770.2432301798392	-706.6851928439003	1393.5493072213199	783.618862745164	-671.7138576615023	1400.8144131350157	762.3629641573001	-685.6822792549457	1395.4987682823034	749.7134336466271	-695.4433778556858	1384.6742329869824	746.042875374029	-701.9395627778068	1370.6424282984524	745.8335028816847	-707.6049528379136	1397.0210066296997	779.8920482723013	-666.2566223052431	1405.9879702636608	757.1432412348447	-676.9291666883266	1400.6091073791256	742.9199615314168	-686.8151360487325	1387.7519744376987	738.289977101928	-694.285286661941	1372.496969484788	737.9628895748031	-700.3057151208508	1399.4052582846732	777.7645084819751	-662.0350456386418	1409.85315823194	755.4220211782564	-667.9071054429539	1405.5803755241332	742.6318161013969	-675.7248001330549	1393.3992656369044	737.9570506517913	-682.5060630230854	1379.160250566543	737.5505783530449	-687.9657176855372	1401.021917140845	776.2194010443554	-656.8402718143452	1411.9959104886066	754.643551729245	-658.9958797362846	1409.1761549534926	743.88598168402	-663.9840010640166	1400.5822807434765	740.2267531178894	-668.314972868806	1388.1363450866763	739.7231343359401	-672.7972229667593	1125.756812757589	1164.347661607659	-425.85376600659725	1066.3777681223357	1096.6318945430135	-339.4981735561629	1174.2518768010946	947.4456109840155	-518.4867359574706	1369.1902142443819	847.5779286089618	-510.81902046336586	1354.2986910424183	849.2307863401963	-517.3053425139773	1354.1200551523498	845.4423222425092	-547.2010733812599	1355.4201732561085	840.9966388735616	-570.0497435017481	1357.7226676545883	835.7442751696543	-590.8336791279417	1356.770256679813	842.8421810377813	-523.6224963685379	1348.5676003782048	829.1657478800324	-557.4407155312311	1349.6360605927327	819.9751789801506	-589.2668902964606	1353.4961742716425	816.9743721456676	-609.3275276324194	1358.8468799109817	816.3205802394765	-626.1167348360082	1361.2523271644905	838.417892969268	-528.3588588574886	1355.6741232688646	822.6851158271693	-563.9036693736621	1357.4664999632648	812.1173781923982	-599.1579767293915	1362.4242129280808	808.2383704716211	-623.6126180740308	1368.425012764149	807.3972726219573	-642.1056713524293	1364.5671018347498	835.6232809091573	-530.7779096486009	1362.2665223486663	819.0454040658664	-564.5452290720538	1364.4785511388782	809.3085972222485	-595.7549382429764	1369.6057388073857	805.2876942398657	-619.5993096176776	1375.4115321421334	804.3645051135887	-637.1087198343159	1369.106760121299	832.9392164013069	-533.0920070893411	1369.5875955242955	816.0150428369274	-565.285319572208	1372.3831226731218	807.4700885970047	-590.8819705282376	1376.6183666548272	804.1753567578544	-608.5668533781418	1382.046490156533	803.1493021606677	-624.2457904811514
4	0.025	1446.805	859.65103	-201.189	1544.7010259407796	858.0475439716436	-233.24186594713328	1390.2346250379958	471.09692397285005	-299.4442904915709	1408.8491554618618	37.143867747035976	-342.09439272600525	1311.7347514259322	-35.603329875810886	-178.06788178207998	1359.3348314875168	834.0233262033396	-154.7447683566718	1239.6164865214014	434.7713473502144	-108.39558100488344	1188.8378967549545	55.83386484514358	57.950076349665096	1211.7875460212997	10.892072645714498	242.55064149093647	1395.2450005799876	978.6635838938258	-262.2213289257196	1338.4099503351276	1039.652723443357	-312.46994010762376	1271.8822033367637	1095.124075207933	-365.2099134234986	1199.8830493735652	1137.4956217126346	-415.9112167511637	1122.236979706352	1183.3387258412845	-466.68088515548834	1079.854879733035	1255.1166264933156	-421.3278041081261	1057.0317858684218	1339.5741558657037	-287.12919639583737	1169.4362668790577	1175.0083706712937	-471.7334604739172	1253.8241148980792	1171.6494323113784	-559.3889184247149	1304.1778122075996	935.3243495079464	-585.9517297595648	1387.7744434346139	795.8350920750137	-658.2272174171818	1386.8986801416047	791.8057408742833	-676.5940273829781	1372.3793147906222	785.0329286973196	-692.00073731507	1363.8183259182872	778.6303745698472	-700.9146261105795	1358.0076524175713	771.8505318435367	-706.7927565979352	1394.3152854483344	784.9943394393001	-671.7585965862011	1401.6612233941269	763.8966686122477	-685.7617171065991	1396.4132902659978	751.3405388973883	-695.57608272484	1385.6311478504963	747.7117048879583	-702.1080208882112	1371.634643960713	747.5258466874902	-707.8047930205546	1397.7837605748311	781.2441358129405	-666.3370529879717	1406.8278290360859	758.6370071481822	-677.0627408775958	1401.5221772117409	744.5120199099105	-687.011472310014	1388.7158839482731	739.9306434924922	-694.52697994754	1373.4993379523949	739.6284412665644	-700.5828247802681	1400.163578187631	779.096183540204	-662.1396114620113	1410.6764190277547	756.8634365313934	-668.0796513821904	1406.466646340844	744.1549710121523	-675.9566949500546	1394.334143432953	739.5250119158401	-682.7841799321553	1380.131089097714	739.1409470032322	-688.2783089646568	1401.773591706411	777.5217180236734	-656.9732411415911	1412.8027375669565	756.0290055691883	-659.2080463777905	1410.0318940131203	745.3302861101744	-664.2506597900009	1401.4727261874648	741.7005424539626	-668.6187145806884	1389.058216460111	741.2149327475772	-673.1334423072446	1125.975522494614	1164.583163017463	-425.78693372990114	1066.574401613994	1096.8325514751045	-339.60723370083736	1174.4757415228723	947.9402617472158	-518.5237107544818	1369.4467236452824	848.5798183722019	-510.8124361982459	1354.650631038315	850.3404707142905	-517.3005315616872	1354.541869476569	846.601245420605	-547.1683572068162	1355.878719288064	842.1870647604995	-569.9990039065921	1358.2016224019605	836.9585958723504	-590.7691375776619	1357.088266190523	843.958774145384	-523.626527266004	1348.9349881567225	830.4171203160276	-557.4506993176551	1350.0374022584292	821.2830996802891	-589.2618677169239	1353.9242770501446	818.2887918043212	-609.301035457186	1359.3009600116288	817.6210645798145	-626.0642972224855	1361.5361432493905	839.5204696107778	-528.3656309875405	1355.9876086734105	823.9115870412934	-563.917740184514	1357.8123566303698	813.4032067961821	-599.1559825120443	1362.800124752957	809.5309265026475	-623.584878693953	1368.8282484016413	808.6740282505522	-642.0496106372814	1364.8254266508843	836.7128967920111	-530.7866745078994	1362.5291423938454	820.2359430006358	-564.5628550836952	1364.764560326459	810.5482908780739	-595.7588783890501	1369.9181783501867	806.532504476545	-619.578587612106	1375.7484488690327	805.5938062459917	-637.0614440304863	1369.3347956279654	834.0069521825554	-533.1012788100244	1369.8006874154003	817.163185404379	-565.303715327824	1372.6074108157625	808.653122480547	-590.8898593753861	1376.8582822894848	805.3599556220944	-608.5569568215917	1382.3059860292797	804.3189193066796	-624.2125070977113
